<svg width="350" height="270" viewBox="0 0 350 270" fill="none" xmlns="http://www.w3.org/2000/svg">
<rect width="350" height="270" fill="white"/>
<path d="M92.4029 100.129C95.1343 104.71 97.8657 109.29 100.597 113.871C105.85 107.635 111.785 102.543 118.403 98.597C126.748 93.6211 135.093 88.6455 143.438 83.6702C182.143 60.5944 220.851 37.5236 259.562 14.4578L255.482 14.4836C282.81 30.3255 310.137 46.1699 337.463 62.0168L335.436 58.5C335.42 90.3333 335.401 122.167 335.38 154L337.418 150.444C310.074 166.426 282.729 182.404 255.382 198.381L259.59 198.364C231.77 182.34 203.952 166.314 176.136 150.285L174.005 149.057L171.864 150.285C144.014 166.256 116.163 182.224 88.3098 198.19L92.7507 198.225C65.9371 182.192 39.1249 166.157 12.3141 150.119L14.5184 154C14.5633 122.167 14.611 90.3333 14.6617 58.5L12.369 62.5149C39.2276 46.7242 66.0875 30.936 92.9489 15.1502L88.0321 15.1389C100.889 22.8359 113.745 30.5335 126.601 38.2316C141.548 47.1814 156.494 56.132 171.439 65.0833C173.146 62.2203 174.854 59.3573 176.561 56.4943C161.58 47.6015 146.6 38.708 131.621 29.8138C118.736 22.1634 105.852 14.5125 92.9679 6.8611L90.503 5.39722L88.0511 6.84981C61.2458 22.7307 34.4391 38.6091 7.63098 54.4851L5.33408 55.8454L5.33831 58.5C5.38897 90.3333 5.43673 122.167 5.48158 154L5.4852 156.573L7.68593 157.881C34.5418 173.843 61.3962 189.808 88.2493 205.775L90.4656 207.093L92.6902 205.81C120.504 189.776 148.319 173.744 176.136 157.715L171.864 157.715C199.714 173.686 227.563 189.66 255.41 205.636L257.523 206.848L259.618 205.619C286.938 189.596 314.259 173.574 341.582 157.556L343.622 156.36L343.62 154C343.599 122.167 343.58 90.3333 343.564 58.5L343.563 56.1554L341.537 54.9832C314.196 39.1634 286.856 23.3411 259.518 7.51641L257.469 6.3304L255.438 7.54219C216.742 30.6323 178.042 53.7174 139.34 76.7976C130.995 81.7739 122.651 86.7499 114.306 91.7258C107.688 95.672 100.387 98.473 92.4029 100.129Z" fill="url(#paint0_linear_1_5)"/>
<path d="M217.213 131.199C214.404 135.733 211.596 140.267 208.787 144.801C213.349 144.49 217.21 145.314 220.368 147.27C225.182 150.253 229.996 153.235 234.809 156.218C242.171 160.779 249.532 165.339 256.893 169.9L259.023 171.22L261.14 169.879C276.14 160.379 291.14 150.879 306.14 141.379L308 140.201V138C308 120.667 308 103.333 308 86V83.7135L306.03 82.5532C291.03 73.7199 276.03 64.8866 261.03 56.0532L258.999 54.8575L256.969 56.0538C200.969 89.0538 144.969 122.054 88.9692 155.054L92.9592 155.013C78.1258 146.679 63.2925 138.346 48.4592 130.013L50.5 133.5C50.5 115.5 50.5 97.5 50.5 79.5L48.4592 82.9873C55.1163 79.2474 61.7735 75.5074 68.4307 71.7674C72.1858 69.6578 75.9408 67.5482 79.6959 65.4386C84.117 62.9549 89.1912 61.6336 94.9184 61.4747C92.3061 56.8249 89.6939 52.1751 87.0816 47.5253C83.9667 52.334 80.1986 55.9802 75.7776 58.4639C72.0225 60.5735 68.2674 62.6831 64.5123 64.7927C57.8551 68.5327 51.198 72.2727 44.5408 76.0127L42.5 77.1592V79.5C42.5 97.5 42.5 115.5 42.5 133.5V135.841L44.5408 136.987C59.3741 145.321 74.2075 153.654 89.0408 161.987L91.0476 163.115L93.0308 161.946C149.031 128.946 205.031 95.9462 261.031 62.9462L256.97 62.9468C271.97 71.7801 286.97 80.6134 301.97 89.4468L300 86C300 103.333 300 120.667 300 138L301.86 134.621C286.86 144.121 271.86 153.621 256.86 163.121L261.107 163.1C253.745 158.539 246.384 153.978 239.023 149.417C234.209 146.435 229.395 143.452 224.581 140.47C221.423 138.513 218.967 135.423 217.213 131.199Z" fill="url(#paint1_linear_1_5)"/>
<path d="M219.054 152.833C227.06 152.833 233.55 146.491 233.55 138.667C233.55 130.843 227.06 124.5 219.054 124.5C211.048 124.5 204.558 130.843 204.558 138.667C204.558 146.491 211.048 152.833 219.054 152.833Z" fill="url(#paint2_radial_1_5)"/>
<path d="M94.24 251H90.4V243.92C90.4 243.104 90.248 242.504 89.944 242.12C89.64 241.736 89.248 241.544 88.768 241.544C88.256 241.544 87.752 241.752 87.256 242.168C86.76 242.584 86.408 243.12 86.2 243.776V251H82.36V243.92C82.36 243.088 82.208 242.488 81.904 242.12C81.6 241.736 81.208 241.544 80.728 241.544C80.232 241.544 79.736 241.752 79.24 242.168C78.744 242.584 78.384 243.12 78.16 243.776V251H74.32V238.4H77.776V240.512C78.24 239.76 78.864 239.184 79.648 238.784C80.448 238.368 81.376 238.16 82.432 238.16C83.472 238.16 84.272 238.408 84.832 238.904C85.392 239.384 85.752 239.952 85.912 240.608C86.392 239.824 87.024 239.224 87.808 238.808C88.608 238.376 89.504 238.16 90.496 238.16C91.296 238.16 91.944 238.312 92.44 238.616C92.936 238.904 93.312 239.288 93.568 239.768C93.824 240.248 94 240.768 94.096 241.328C94.192 241.872 94.24 242.408 94.24 242.936V251ZM103.23 251.24C102.158 251.24 101.198 251.064 100.35 250.712C99.5177 250.36 98.8137 249.88 98.2377 249.272C97.6617 248.664 97.2217 247.968 96.9177 247.184C96.6297 246.4 96.4857 245.576 96.4857 244.712C96.4857 243.832 96.6297 243 96.9177 242.216C97.2217 241.432 97.6617 240.736 98.2377 240.128C98.8137 239.52 99.5177 239.04 100.35 238.688C101.198 238.336 102.158 238.16 103.23 238.16C104.302 238.16 105.254 238.336 106.086 238.688C106.918 239.04 107.622 239.52 108.198 240.128C108.774 240.736 109.214 241.432 109.518 242.216C109.822 243 109.974 243.832 109.974 244.712C109.974 245.576 109.822 246.4 109.518 247.184C109.214 247.968 108.774 248.664 108.198 249.272C107.622 249.88 106.918 250.36 106.086 250.712C105.254 251.064 104.302 251.24 103.23 251.24ZM100.422 244.712C100.422 245.368 100.542 245.944 100.782 246.44C101.038 246.936 101.374 247.32 101.79 247.592C102.206 247.864 102.686 248 103.23 248C103.758 248 104.23 247.864 104.646 247.592C105.078 247.304 105.414 246.912 105.654 246.416C105.894 245.92 106.014 245.352 106.014 244.712C106.014 244.056 105.894 243.48 105.654 242.984C105.414 242.488 105.078 242.104 104.646 241.832C104.23 241.56 103.758 241.424 103.23 241.424C102.686 241.424 102.206 241.56 101.79 241.832C101.374 242.104 101.038 242.488 100.782 242.984C100.542 243.48 100.422 244.056 100.422 244.712ZM119.918 251.24C118.958 251.24 118.118 251.04 117.398 250.64C116.678 250.224 116.11 249.648 115.694 248.912V251H112.358V233.48H116.198V240.464C116.614 239.728 117.166 239.16 117.854 238.76C118.558 238.36 119.382 238.16 120.326 238.16C121.126 238.16 121.854 238.336 122.51 238.688C123.182 239.024 123.758 239.496 124.238 240.104C124.734 240.696 125.118 241.392 125.39 242.192C125.662 242.976 125.798 243.832 125.798 244.76C125.798 245.672 125.646 246.52 125.342 247.304C125.054 248.088 124.646 248.776 124.118 249.368C123.59 249.96 122.966 250.424 122.246 250.76C121.542 251.08 120.766 251.24 119.918 251.24ZM118.838 248C119.27 248 119.67 247.92 120.038 247.76C120.422 247.584 120.75 247.352 121.022 247.064C121.294 246.776 121.502 246.44 121.646 246.056C121.79 245.656 121.862 245.224 121.862 244.76C121.862 244.168 121.742 243.616 121.502 243.104C121.262 242.592 120.926 242.184 120.494 241.88C120.078 241.576 119.59 241.424 119.03 241.424C118.63 241.424 118.246 241.52 117.878 241.712C117.51 241.904 117.182 242.168 116.894 242.504C116.606 242.824 116.374 243.192 116.198 243.608V246.248C116.326 246.52 116.486 246.768 116.678 246.992C116.87 247.2 117.078 247.376 117.302 247.52C117.542 247.664 117.79 247.784 118.046 247.88C118.318 247.96 118.582 248 118.838 248ZM128.19 251V238.4H132.03V251H128.19ZM128.19 236.96V233.48H132.03V236.96H128.19ZM135.018 246.464V238.4H138.858V245.624C138.858 246.392 139.01 246.984 139.314 247.4C139.618 247.8 140.05 248 140.61 248C140.962 248 141.298 247.944 141.618 247.832C141.938 247.704 142.25 247.504 142.554 247.232C142.858 246.96 143.13 246.608 143.37 246.176V238.4H147.21V246.728C147.21 247.112 147.266 247.384 147.378 247.544C147.506 247.688 147.722 247.776 148.026 247.808V251C147.674 251.064 147.362 251.112 147.09 251.144C146.834 251.176 146.602 251.192 146.394 251.192C145.722 251.192 145.186 251.056 144.786 250.784C144.386 250.496 144.138 250.096 144.042 249.584L143.97 248.816C143.394 249.648 142.674 250.264 141.81 250.664C140.962 251.048 140.01 251.24 138.954 251.24C137.674 251.24 136.698 250.832 136.026 250.016C135.354 249.2 135.018 248.016 135.018 246.464ZM155.489 251.24C154.417 251.24 153.369 251.064 152.345 250.712C151.321 250.36 150.457 249.84 149.753 249.152L151.073 246.728C151.841 247.288 152.585 247.712 153.305 248C154.041 248.288 154.729 248.432 155.369 248.432C155.865 248.432 156.249 248.352 156.521 248.192C156.793 248.032 156.929 247.784 156.929 247.448C156.929 247.208 156.849 247.024 156.689 246.896C156.529 246.752 156.281 246.624 155.945 246.512C155.625 246.4 155.225 246.28 154.745 246.152C153.785 245.832 152.985 245.52 152.345 245.216C151.705 244.912 151.225 244.544 150.905 244.112C150.585 243.664 150.425 243.088 150.425 242.384C150.425 241.536 150.633 240.8 151.049 240.176C151.481 239.536 152.089 239.04 152.873 238.688C153.657 238.336 154.593 238.16 155.681 238.16C156.545 238.16 157.385 238.296 158.201 238.568C159.033 238.84 159.809 239.296 160.529 239.936L159.041 242.336C158.321 241.84 157.681 241.48 157.121 241.256C156.561 241.032 156.017 240.92 155.489 240.92C155.217 240.92 154.969 240.952 154.745 241.016C154.521 241.08 154.337 241.192 154.193 241.352C154.065 241.496 154.001 241.688 154.001 241.928C154.001 242.168 154.065 242.36 154.193 242.504C154.337 242.648 154.553 242.776 154.841 242.888C155.145 242.984 155.521 243.104 155.969 243.248C157.009 243.552 157.873 243.864 158.561 244.184C159.249 244.488 159.761 244.872 160.097 245.336C160.449 245.784 160.625 246.384 160.625 247.136C160.625 248.416 160.161 249.424 159.233 250.16C158.321 250.88 157.073 251.24 155.489 251.24Z" fill="black"/>
<path d="M171.8 252V239.496H173.432V252H171.8ZM171.8 236.88V234.48H173.432V236.88H171.8ZM188.979 252H187.347V245.016C187.347 243.544 187.131 242.472 186.699 241.8C186.267 241.112 185.587 240.768 184.659 240.768C184.019 240.768 183.387 240.928 182.763 241.248C182.139 241.552 181.587 241.976 181.107 242.52C180.643 243.048 180.307 243.656 180.099 244.344V252H178.467V239.496H179.955V242.328C180.291 241.72 180.731 241.192 181.275 240.744C181.819 240.28 182.435 239.92 183.123 239.664C183.811 239.408 184.523 239.28 185.259 239.28C185.947 239.28 186.531 239.408 187.011 239.664C187.491 239.92 187.875 240.288 188.163 240.768C188.451 241.232 188.659 241.8 188.787 242.472C188.915 243.128 188.979 243.864 188.979 244.68V252ZM199.782 251.4C199.654 251.448 199.454 251.536 199.182 251.664C198.91 251.792 198.582 251.904 198.198 252C197.814 252.096 197.398 252.144 196.95 252.144C196.486 252.144 196.046 252.056 195.63 251.88C195.23 251.704 194.91 251.44 194.67 251.088C194.43 250.72 194.31 250.272 194.31 249.744V240.792H192.582V239.496H194.31V235.272H195.942V239.496H198.822V240.792H195.942V249.288C195.974 249.736 196.134 250.072 196.422 250.296C196.726 250.52 197.07 250.632 197.454 250.632C197.902 250.632 198.31 250.56 198.678 250.416C199.046 250.256 199.27 250.144 199.35 250.08L199.782 251.4ZM208.45 252.24C207.554 252.24 206.722 252.072 205.954 251.736C205.186 251.384 204.522 250.912 203.962 250.32C203.402 249.712 202.962 249.016 202.642 248.232C202.338 247.448 202.186 246.608 202.186 245.712C202.186 244.544 202.45 243.472 202.978 242.496C203.522 241.52 204.266 240.744 205.21 240.168C206.154 239.576 207.226 239.28 208.426 239.28C209.658 239.28 210.73 239.576 211.642 240.168C212.57 240.76 213.298 241.544 213.826 242.52C214.354 243.48 214.618 244.536 214.618 245.688C214.618 245.816 214.618 245.944 214.618 246.072C214.618 246.184 214.61 246.272 214.594 246.336H203.89C203.97 247.232 204.218 248.032 204.634 248.736C205.066 249.424 205.618 249.976 206.29 250.392C206.978 250.792 207.722 250.992 208.522 250.992C209.338 250.992 210.106 250.784 210.826 250.368C211.562 249.952 212.074 249.408 212.362 248.736L213.778 249.12C213.522 249.712 213.13 250.248 212.602 250.728C212.074 251.208 211.45 251.584 210.73 251.856C210.026 252.112 209.266 252.24 208.45 252.24ZM203.842 245.16H213.082C213.018 244.248 212.77 243.448 212.338 242.76C211.922 242.072 211.37 241.536 210.682 241.152C210.01 240.752 209.266 240.552 208.45 240.552C207.634 240.552 206.89 240.752 206.218 241.152C205.546 241.536 204.994 242.08 204.562 242.784C204.146 243.472 203.906 244.264 203.842 245.16ZM223.592 252.168C222.744 252.168 221.96 251.992 221.24 251.64C220.52 251.288 219.896 250.816 219.368 250.224C218.856 249.616 218.456 248.928 218.168 248.16C217.88 247.392 217.736 246.6 217.736 245.784C217.736 244.904 217.872 244.08 218.144 243.312C218.432 242.528 218.832 241.832 219.344 241.224C219.872 240.616 220.488 240.144 221.192 239.808C221.896 239.456 222.68 239.28 223.544 239.28C224.616 239.28 225.544 239.552 226.328 240.096C227.128 240.64 227.8 241.312 228.344 242.112V239.496H229.808V252.048C229.808 253.2 229.528 254.168 228.968 254.952C228.424 255.752 227.68 256.352 226.736 256.752C225.808 257.152 224.792 257.352 223.688 257.352C222.264 257.352 221.112 257.096 220.232 256.584C219.352 256.072 218.632 255.384 218.072 254.52L219.08 253.728C219.576 254.512 220.232 255.096 221.048 255.48C221.88 255.864 222.76 256.056 223.688 256.056C224.504 256.056 225.248 255.904 225.92 255.6C226.608 255.312 227.152 254.872 227.552 254.28C227.968 253.688 228.176 252.944 228.176 252.048V249.576C227.696 250.36 227.04 250.992 226.208 251.472C225.376 251.936 224.504 252.168 223.592 252.168ZM224.048 250.8C224.544 250.8 225.016 250.712 225.464 250.536C225.928 250.36 226.352 250.128 226.736 249.84C227.12 249.536 227.44 249.2 227.696 248.832C227.952 248.464 228.112 248.088 228.176 247.704V243.84C227.936 243.232 227.592 242.696 227.144 242.232C226.696 241.752 226.184 241.384 225.608 241.128C225.048 240.856 224.464 240.72 223.856 240.72C223.152 240.72 222.52 240.872 221.96 241.176C221.416 241.464 220.952 241.856 220.568 242.352C220.2 242.832 219.912 243.376 219.704 243.984C219.496 244.592 219.392 245.2 219.392 245.808C219.392 246.48 219.512 247.12 219.752 247.728C219.992 248.32 220.32 248.856 220.736 249.336C221.168 249.8 221.664 250.16 222.224 250.416C222.8 250.672 223.408 250.8 224.048 250.8ZM241.092 240.936C240.004 240.968 239.044 241.272 238.212 241.848C237.396 242.424 236.82 243.216 236.484 244.224V252H234.852V239.496H236.388V242.496C236.82 241.616 237.388 240.904 238.092 240.36C238.812 239.816 239.572 239.512 240.372 239.448C240.532 239.432 240.668 239.424 240.78 239.424C240.908 239.424 241.012 239.432 241.092 239.448V240.936ZM243.651 248.4C243.651 247.616 243.875 246.944 244.323 246.384C244.771 245.808 245.387 245.368 246.171 245.064C246.971 244.744 247.891 244.584 248.931 244.584C249.539 244.584 250.171 244.632 250.827 244.728C251.483 244.824 252.067 244.968 252.579 245.16V244.104C252.579 243.048 252.267 242.208 251.643 241.584C251.019 240.96 250.155 240.648 249.051 240.648C248.379 240.648 247.715 240.776 247.059 241.032C246.419 241.272 245.747 241.632 245.043 242.112L244.419 240.96C245.235 240.4 246.035 239.984 246.819 239.712C247.603 239.424 248.403 239.28 249.219 239.28C250.755 239.28 251.971 239.72 252.867 240.6C253.763 241.48 254.211 242.696 254.211 244.248V250.032C254.211 250.256 254.259 250.424 254.355 250.536C254.451 250.632 254.603 250.688 254.811 250.704V252C254.635 252.016 254.483 252.032 254.355 252.048C254.227 252.064 254.131 252.064 254.067 252.048C253.667 252.032 253.363 251.904 253.155 251.664C252.947 251.424 252.835 251.168 252.819 250.896L252.795 249.984C252.235 250.704 251.507 251.264 250.611 251.664C249.715 252.048 248.803 252.24 247.875 252.24C247.075 252.24 246.347 252.072 245.691 251.736C245.051 251.384 244.547 250.92 244.179 250.344C243.827 249.752 243.651 249.104 243.651 248.4ZM252.027 249.36C252.203 249.136 252.339 248.92 252.435 248.712C252.531 248.504 252.579 248.32 252.579 248.16V246.336C252.035 246.128 251.467 245.968 250.875 245.856C250.299 245.744 249.715 245.688 249.123 245.688C247.955 245.688 247.011 245.92 246.291 246.384C245.571 246.848 245.211 247.48 245.211 248.28C245.211 248.744 245.331 249.184 245.571 249.6C245.811 250 246.163 250.336 246.627 250.608C247.091 250.864 247.635 250.992 248.259 250.992C249.043 250.992 249.771 250.84 250.443 250.536C251.131 250.232 251.659 249.84 252.027 249.36ZM265.083 251.4C264.955 251.448 264.755 251.536 264.483 251.664C264.211 251.792 263.883 251.904 263.499 252C263.115 252.096 262.699 252.144 262.251 252.144C261.787 252.144 261.347 252.056 260.931 251.88C260.531 251.704 260.211 251.44 259.971 251.088C259.731 250.72 259.611 250.272 259.611 249.744V240.792H257.883V239.496H259.611V235.272H261.243V239.496H264.123V240.792H261.243V249.288C261.275 249.736 261.435 250.072 261.723 250.296C262.027 250.52 262.371 250.632 262.755 250.632C263.203 250.632 263.611 250.56 263.979 250.416C264.347 250.256 264.571 250.144 264.651 250.08L265.083 251.4ZM268.562 252V239.496H270.194V252H268.562ZM268.562 236.88V234.48H270.194V236.88H268.562ZM280.557 252.24C279.661 252.24 278.829 252.072 278.061 251.736C277.309 251.384 276.653 250.912 276.093 250.32C275.549 249.712 275.125 249.024 274.821 248.256C274.517 247.472 274.365 246.648 274.365 245.784C274.365 244.888 274.517 244.056 274.821 243.288C275.125 242.504 275.557 241.816 276.117 241.224C276.677 240.616 277.333 240.144 278.085 239.808C278.853 239.456 279.685 239.28 280.581 239.28C281.477 239.28 282.301 239.456 283.053 239.808C283.805 240.144 284.461 240.616 285.021 241.224C285.581 241.816 286.013 242.504 286.317 243.288C286.621 244.056 286.773 244.888 286.773 245.784C286.773 246.648 286.621 247.472 286.317 248.256C286.013 249.024 285.581 249.712 285.021 250.32C284.477 250.912 283.821 251.384 283.053 251.736C282.301 252.072 281.469 252.24 280.557 252.24ZM276.021 245.808C276.021 246.736 276.221 247.584 276.621 248.352C277.037 249.104 277.589 249.704 278.277 250.152C278.965 250.584 279.725 250.8 280.557 250.8C281.389 250.8 282.149 250.576 282.837 250.128C283.525 249.68 284.077 249.072 284.493 248.304C284.909 247.52 285.117 246.672 285.117 245.76C285.117 244.832 284.909 243.984 284.493 243.216C284.077 242.448 283.525 241.84 282.837 241.392C282.149 240.944 281.389 240.72 280.557 240.72C279.725 240.72 278.965 240.952 278.277 241.416C277.605 241.88 277.061 242.496 276.645 243.264C276.229 244.016 276.021 244.864 276.021 245.808ZM301.454 252H299.822V245.016C299.822 243.544 299.606 242.472 299.174 241.8C298.742 241.112 298.062 240.768 297.134 240.768C296.494 240.768 295.862 240.928 295.238 241.248C294.614 241.552 294.062 241.976 293.582 242.52C293.118 243.048 292.782 243.656 292.574 244.344V252H290.942V239.496H292.43V242.328C292.766 241.72 293.206 241.192 293.75 240.744C294.294 240.28 294.91 239.92 295.598 239.664C296.286 239.408 296.998 239.28 297.734 239.28C298.422 239.28 299.006 239.408 299.486 239.664C299.966 239.92 300.35 240.288 300.638 240.768C300.926 241.232 301.134 241.8 301.262 242.472C301.39 243.128 301.454 243.864 301.454 244.68V252Z" fill="black"/>
<path d="M99.3333 120.833C107.339 120.833 113.829 114.491 113.829 106.667C113.829 98.8426 107.339 92.5 99.3333 92.5C91.3273 92.5 84.8372 98.8426 84.8372 106.667C84.8372 114.491 91.3273 120.833 99.3333 120.833Z" fill="url(#paint3_radial_1_5)"/>
<path d="M90 68.6667C97.824 68.6667 104.167 62.324 104.167 54.5C104.167 46.676 97.824 40.3333 90 40.3333C82.176 40.3333 75.8333 46.676 75.8333 54.5C75.8333 62.324 82.176 68.6667 90 68.6667Z" fill="url(#paint4_radial_1_5)"/>
<defs>
<linearGradient id="paint0_linear_1_5" x1="174.75" y1="11" x2="174.75" y2="202" gradientUnits="userSpaceOnUse">
<stop stop-color="#C8FF00"/>
<stop offset="0.2" stop-color="#00E3FF"/>
<stop offset="0.4" stop-color="#3A65FF"/>
<stop offset="0.6" stop-color="#9B5CFF"/>
<stop offset="0.8" stop-color="#FF38A0"/>
<stop offset="1" stop-color="#6666FF" stop-opacity="0.584314"/>
</linearGradient>
<linearGradient id="paint1_linear_1_5" x1="175.25" y1="54.5" x2="175.25" y2="166.5" gradientUnits="userSpaceOnUse">
<stop stop-color="#C8FF00"/>
<stop offset="0.2" stop-color="#00E3FF"/>
<stop offset="0.4" stop-color="#3A65FF"/>
<stop offset="0.6" stop-color="#9B5CFF"/>
<stop offset="0.8" stop-color="#FF38A0"/>
<stop offset="1" stop-color="#FF9500"/>
</linearGradient>
<radialGradient id="paint2_radial_1_5" cx="0" cy="0" r="1" gradientUnits="userSpaceOnUse" gradientTransform="translate(219.054 138.667) rotate(90) scale(14.1667 14.4961)">
<stop stop-color="#FFEA00"/>
<stop offset="1" stop-color="#FF4900"/>
</radialGradient>
<radialGradient id="paint3_radial_1_5" cx="0" cy="0" r="1" gradientUnits="userSpaceOnUse" gradientTransform="translate(99.3333 106.667) rotate(90) scale(14.1667 14.4961)">
<stop stop-color="#FF38A0"/>
<stop offset="1" stop-color="#7A00B4"/>
</radialGradient>
<radialGradient id="paint4_radial_1_5" cx="0" cy="0" r="1" gradientUnits="userSpaceOnUse" gradientTransform="translate(90 54.5) rotate(90) scale(14.1667)">
<stop stop-color="#00E3FF"/>
<stop offset="1" stop-color="#005BFF"/>
</radialGradient>
</defs>
</svg>
